# xmcd
#
# Track frame offsets:
#	150
#	17450
#	32945
#	46915
#	63335
#	79997
#
# Disc length: 1320 seconds
#
# Revision: 2
# Processed by: cddbd v1.5.1PL2 Copyright (c) Steve Scherf et al.
# Submitted via: dBpowerAMP V4.0
#
DISCID=43052606
DTITLE=Various Artist - Wal-Mart Salute to Country (Nabisco)
DYEAR=2000
DGENRE=Country
TTITLE0=01 Chely Wright/Shut Up and Drive
TTITLE1=02 Vince Gill/High Lonesome Sound
TTITLE2=03 Shane Minor/Slave to the Heart
TTITLE3=04 Terri Clark/Now that I've Found You
TTITLE4=05 Mark Willis/This Can't Be Love
TTITLE5=06 George Strait/I Can Still Make Cheyenne
EXTD=
EXTT0=
EXTT1=
EXTT2=
EXTT3=
EXTT4=
EXTT5=
PLAYORDER=
